# MagicaVoxel @ Ephtracy

# group
o 

# material
mtllib Blocker Bone Map 1-7.mtl
usemtl palette

# normals
vn 0 0 -1
vn 0 0 1
vn -1 0 0
vn 1 0 0
vn 0 -1 0
vn 0 1 0

# texcoords
vt 0.162109 0.5
vt 0.865234 0.5
vt 0.869141 0.5

# verts
v -10.7 0 -1.6
v -7.5 0 -1.6
v -10.7 0.5 -1.6
v -7.5 0.5 -1.6
v -10.6 0.1 1.5
v -7.5 0.1 1.5
v -10.6 0.5 1.5
v -7.5 0.5 1.5
v -10.6 0.1 -1.5
v -7.5 0.1 -1.5
v -10.6 0.5 -1.5
v -7.5 0.5 -1.5
v -10.7 0 1.6
v -7.5 0 1.6
v -10.7 0.5 1.6
v -7.5 0.5 1.6
v -10.7 0 -1.6
v -10.7 0.5 -1.6
v -10.7 0 1.6
v -10.7 0.5 1.6
v -10.6 0.1 -1.5
v -10.6 0.5 -1.5
v -10.6 0.1 1.5
v -10.6 0.5 1.5
v -7.5 0 -1.6
v -7.5 0.5 -1.6
v -7.5 0 -1.5
v -7.5 0.1 -1.5
v -7.5 0.5 -1.5
v -7.5 0 1.5
v -7.5 0.1 1.5
v -7.5 0.5 1.5
v -7.5 0 1.6
v -7.5 0.5 1.6
v -10.7 0 -1.6
v -10.7 0 1.6
v -10.6 0 -1.5
v -10.6 0 1.5
v -10.5 0 -1.4
v -10.5 0 1.4
v -10.3 0 -1.2
v -10.3 0 1.2
v -7.8 0 -1.2
v -7.8 0 1.2
v -7.6 0 -1.4
v -7.6 0 1.4
v -7.5 0 -1.6
v -7.5 0 -1.5
v -7.5 0 1.5
v -7.5 0 1.6
v -10.6 0.1 -1.5
v -10.6 0.1 1.5
v -10.5 0.1 -1.4
v -10.5 0.1 1.4
v -10.3 0.1 -1.2
v -10.3 0.1 1.2
v -7.8 0.1 -1.2
v -7.8 0.1 1.2
v -7.6 0.1 -1.4
v -7.6 0.1 1.4
v -7.5 0.1 -1.5
v -7.5 0.1 1.5
v -10.7 0.5 -1.6
v -10.7 0.5 1.6
v -10.6 0.5 -1.5
v -10.6 0.5 1.5
v -7.5 0.5 -1.6
v -7.5 0.5 -1.5
v -7.5 0.5 1.5
v -7.5 0.5 1.6

# faces
f 3/3/1 2/3/1 1/3/1
f 4/3/1 2/3/1 3/3/1
f 7/3/1 6/3/1 5/3/1
f 8/3/1 6/3/1 7/3/1
f 9/3/2 10/3/2 11/3/2
f 11/3/2 10/3/2 12/3/2
f 13/3/2 14/3/2 15/3/2
f 15/3/2 14/3/2 16/3/2
f 19/3/3 18/3/3 17/3/3
f 20/3/3 18/3/3 19/3/3
f 21/3/4 22/3/4 23/3/4
f 23/3/4 22/3/4 24/3/4
f 25/3/4 26/3/4 27/3/4
f 27/3/4 26/3/4 28/3/4
f 28/3/4 26/3/4 29/3/4
f 27/2/4 28/2/4 30/2/4
f 30/2/4 28/2/4 31/2/4
f 30/3/4 31/3/4 33/3/4
f 31/3/4 32/3/4 33/3/4
f 33/3/4 32/3/4 34/3/4
f 37/3/5 36/3/5 35/3/5
f 38/3/5 36/3/5 37/3/5
f 39/2/5 38/2/5 37/2/5
f 40/2/5 38/2/5 39/2/5
f 41/1/5 40/1/5 39/1/5
f 42/1/5 40/1/5 41/1/5
f 43/1/5 41/1/5 39/1/5
f 43/2/5 42/2/5 41/2/5
f 44/1/5 40/1/5 42/1/5
f 44/2/5 42/2/5 43/2/5
f 45/2/5 39/2/5 37/2/5
f 45/1/5 43/1/5 39/1/5
f 45/1/5 44/1/5 43/1/5
f 46/1/5 40/1/5 44/1/5
f 46/1/5 44/1/5 45/1/5
f 46/2/5 38/2/5 40/2/5
f 47/3/5 37/3/5 35/3/5
f 48/2/5 45/2/5 37/2/5
f 48/3/5 37/3/5 47/3/5
f 48/2/5 46/2/5 45/2/5
f 49/2/5 38/2/5 46/2/5
f 49/2/5 46/2/5 48/2/5
f 49/3/5 36/3/5 38/3/5
f 50/3/5 36/3/5 49/3/5
f 51/2/6 52/2/6 53/2/6
f 53/2/6 52/2/6 54/2/6
f 53/1/6 54/1/6 55/1/6
f 55/1/6 54/1/6 56/1/6
f 53/1/6 55/1/6 57/1/6
f 55/2/6 56/2/6 57/2/6
f 56/1/6 54/1/6 58/1/6
f 57/2/6 56/2/6 58/2/6
f 51/2/6 53/2/6 59/2/6
f 53/1/6 57/1/6 59/1/6
f 57/1/6 58/1/6 59/1/6
f 58/1/6 54/1/6 60/1/6
f 59/1/6 58/1/6 60/1/6
f 54/2/6 52/2/6 60/2/6
f 51/2/6 59/2/6 61/2/6
f 59/2/6 60/2/6 61/2/6
f 60/2/6 52/2/6 62/2/6
f 61/2/6 60/2/6 62/2/6
f 63/3/6 64/3/6 65/3/6
f 65/3/6 64/3/6 66/3/6
f 63/3/6 65/3/6 67/3/6
f 67/3/6 65/3/6 68/3/6
f 66/3/6 64/3/6 69/3/6
f 69/3/6 64/3/6 70/3/6
