# MagicaVoxel @ Ephtracy

# group
o 

# material
mtllib Blocker Bone Map 1-0.mtl
usemtl palette

# normals
vn 0 0 -1
vn 0 0 1
vn -1 0 0
vn 1 0 0
vn 0 -1 0
vn 0 1 0

# texcoords
vt 0.865234 0.5
vt 0.869141 0.5
vt 0.935547 0.5

# verts
v -13.9 0 -8
v -10.7 0 -8
v -13.9 0.5 -8
v -10.7 0.5 -8
v -13.8 0.1 -4.9
v -10.7 0.1 -4.9
v -13.8 0.5 -4.9
v -10.7 0.5 -4.9
v -13.8 0.1 -7.9
v -10.7 0.1 -7.9
v -13.8 0.5 -7.9
v -10.7 0.5 -7.9
v -13.9 0 -4.8
v -10.7 0 -4.8
v -13.9 0.5 -4.8
v -10.7 0.5 -4.8
v -13.9 0 -8
v -13.9 0.5 -8
v -13.9 0 -4.8
v -13.9 0.5 -4.8
v -13.8 0.1 -7.9
v -13.8 0.5 -7.9
v -13.8 0.1 -4.9
v -13.8 0.5 -4.9
v -10.7 0 -8
v -10.7 0.5 -8
v -10.7 0 -7.9
v -10.7 0.1 -7.9
v -10.7 0.5 -7.9
v -10.7 0 -4.9
v -10.7 0.1 -4.9
v -10.7 0.5 -4.9
v -10.7 0 -4.8
v -10.7 0.5 -4.8
v -13.9 0 -8
v -13.9 0 -4.8
v -13.8 0 -7.9
v -13.8 0 -4.9
v -13.7 0 -7.8
v -13.7 0 -5
v -13.5 0 -7.6
v -13.5 0 -5.2
v -11 0 -7.6
v -11 0 -5.2
v -10.8 0 -7.8
v -10.8 0 -5
v -10.7 0 -8
v -10.7 0 -7.9
v -10.7 0 -4.9
v -10.7 0 -4.8
v -13.8 0.1 -7.9
v -13.8 0.1 -4.9
v -13.7 0.1 -7.8
v -13.7 0.1 -5
v -13.5 0.1 -7.6
v -13.5 0.1 -5.2
v -11 0.1 -7.6
v -11 0.1 -5.2
v -10.8 0.1 -7.8
v -10.8 0.1 -5
v -10.7 0.1 -7.9
v -10.7 0.1 -4.9
v -13.9 0.5 -8
v -13.9 0.5 -4.8
v -13.8 0.5 -7.9
v -13.8 0.5 -4.9
v -10.7 0.5 -8
v -10.7 0.5 -7.9
v -10.7 0.5 -4.9
v -10.7 0.5 -4.8

# faces
f 3/2/1 2/2/1 1/2/1
f 4/2/1 2/2/1 3/2/1
f 7/2/1 6/2/1 5/2/1
f 8/2/1 6/2/1 7/2/1
f 9/2/2 10/2/2 11/2/2
f 11/2/2 10/2/2 12/2/2
f 13/2/2 14/2/2 15/2/2
f 15/2/2 14/2/2 16/2/2
f 19/2/3 18/2/3 17/2/3
f 20/2/3 18/2/3 19/2/3
f 21/2/4 22/2/4 23/2/4
f 23/2/4 22/2/4 24/2/4
f 25/2/4 26/2/4 27/2/4
f 27/2/4 26/2/4 28/2/4
f 28/2/4 26/2/4 29/2/4
f 27/1/4 28/1/4 30/1/4
f 30/1/4 28/1/4 31/1/4
f 30/2/4 31/2/4 33/2/4
f 31/2/4 32/2/4 33/2/4
f 33/2/4 32/2/4 34/2/4
f 37/2/5 36/2/5 35/2/5
f 38/2/5 36/2/5 37/2/5
f 39/1/5 38/1/5 37/1/5
f 40/1/5 38/1/5 39/1/5
f 41/3/5 40/3/5 39/3/5
f 42/3/5 40/3/5 41/3/5
f 43/3/5 41/3/5 39/3/5
f 43/1/5 42/1/5 41/1/5
f 44/3/5 40/3/5 42/3/5
f 44/1/5 42/1/5 43/1/5
f 45/1/5 39/1/5 37/1/5
f 45/3/5 43/3/5 39/3/5
f 45/3/5 44/3/5 43/3/5
f 46/3/5 40/3/5 44/3/5
f 46/3/5 44/3/5 45/3/5
f 46/1/5 38/1/5 40/1/5
f 47/2/5 37/2/5 35/2/5
f 48/1/5 45/1/5 37/1/5
f 48/2/5 37/2/5 47/2/5
f 48/1/5 46/1/5 45/1/5
f 49/1/5 38/1/5 46/1/5
f 49/1/5 46/1/5 48/1/5
f 49/2/5 36/2/5 38/2/5
f 50/2/5 36/2/5 49/2/5
f 51/1/6 52/1/6 53/1/6
f 53/1/6 52/1/6 54/1/6
f 53/3/6 54/3/6 55/3/6
f 55/3/6 54/3/6 56/3/6
f 53/3/6 55/3/6 57/3/6
f 55/1/6 56/1/6 57/1/6
f 56/3/6 54/3/6 58/3/6
f 57/1/6 56/1/6 58/1/6
f 51/1/6 53/1/6 59/1/6
f 53/3/6 57/3/6 59/3/6
f 57/3/6 58/3/6 59/3/6
f 58/3/6 54/3/6 60/3/6
f 59/3/6 58/3/6 60/3/6
f 54/1/6 52/1/6 60/1/6
f 51/1/6 59/1/6 61/1/6
f 59/1/6 60/1/6 61/1/6
f 60/1/6 52/1/6 62/1/6
f 61/1/6 60/1/6 62/1/6
f 63/2/6 64/2/6 65/2/6
f 65/2/6 64/2/6 66/2/6
f 63/2/6 65/2/6 67/2/6
f 67/2/6 65/2/6 68/2/6
f 66/2/6 64/2/6 69/2/6
f 69/2/6 64/2/6 70/2/6
