# MagicaVoxel @ Ephtracy

# group
o 

# material
mtllib Habor Map-5.mtl
usemtl palette

# normals
vn -1 0 0
vn 1 0 0
vn 0 0 1
vn 0 0 -1
vn 0 -1 0
vn 0 1 0

# texcoords
vt 0.861328 0.5
vt 0.865234 0.5

# verts
v -2.4 0.3 12
v -2.4 0.3 8.8
v -2.4 0.4 12
v -2.4 0.4 8.8
v -0.0999999 0 11.9
v -0.0999999 0 11.8
v -0.0999999 0.1 11.9
v -0.0999999 0.1 11.8
v 0.7 0.4 12
v 0.7 0.4 10.8
v 0.7 0.6 12
v 0.7 0.6 10.8
v -1.8 0.3 10.8
v -1.8 0.3 8.8
v -1.8 0.4 10.8
v -1.8 0.4 8.8
v 0 0 11.9
v 0 0 11.8
v 0 0.1 11.9
v 0 0.1 11.8
v 0.8 0.3 12
v 0.8 0.3 10.8
v 0.8 0.4 12
v 0.8 0.4 10.8
v 0.8 0.6 12
v 0.8 0.6 10.8
v -2.4 0.3 12
v -2.4 0.4 12
v 0.7 0.4 12
v 0.7 0.6 12
v 0.8 0.3 12
v 0.8 0.4 12
v 0.8 0.6 12
v -0.0999999 0 11.9
v -0.0999999 0.1 11.9
v 0 0 11.9
v 0 0.1 11.9
v -0.0999999 0 11.8
v -0.0999999 0.1 11.8
v 0 0 11.8
v 0 0.1 11.8
v -1.8 0.3 10.8
v -1.8 0.4 10.8
v 0.7 0.4 10.8
v 0.7 0.6 10.8
v 0.8 0.3 10.8
v 0.8 0.4 10.8
v 0.8 0.6 10.8
v -2.4 0.3 8.8
v -2.4 0.4 8.8
v -1.8 0.3 8.8
v -1.8 0.4 8.8
v -0.0999999 0 11.9
v 0 0 11.9
v -0.0999999 0 11.8
v 0 0 11.8
v -2.4 0.3 12
v 0.8 0.3 12
v -1.8 0.3 10.8
v 0.8 0.3 10.8
v -2.4 0.3 8.8
v -1.8 0.3 8.8
v -0.0999999 0.1 11.9
v 0 0.1 11.9
v -0.0999999 0.1 11.8
v 0 0.1 11.8
v -2.4 0.4 12
v 0.7 0.4 12
v -1.8 0.4 10.8
v 0.7 0.4 10.8
v -2.4 0.4 8.8
v -1.8 0.4 8.8
v 0.7 0.6 12
v 0.8 0.6 12
v 0.7 0.6 10.8
v 0.8 0.6 10.8

# faces
f 3/1/1 2/1/1 1/1/1
f 4/1/1 2/1/1 3/1/1
f 7/1/1 6/1/1 5/1/1
f 8/1/1 6/1/1 7/1/1
f 11/2/1 10/2/1 9/2/1
f 12/2/1 10/2/1 11/2/1
f 13/1/2 14/1/2 15/1/2
f 15/1/2 14/1/2 16/1/2
f 17/1/2 18/1/2 19/1/2
f 19/1/2 18/1/2 20/1/2
f 21/1/2 22/1/2 23/1/2
f 23/1/2 22/1/2 24/1/2
f 23/2/2 24/2/2 25/2/2
f 25/2/2 24/2/2 26/2/2
f 29/1/3 28/1/3 27/1/3
f 31/1/3 29/1/3 27/1/3
f 32/2/3 30/2/3 29/2/3
f 32/1/3 29/1/3 31/1/3
f 33/2/3 30/2/3 32/2/3
f 36/1/3 35/1/3 34/1/3
f 37/1/3 35/1/3 36/1/3
f 38/1/4 39/1/4 40/1/4
f 40/1/4 39/1/4 41/1/4
f 42/1/4 43/1/4 44/1/4
f 42/1/4 44/1/4 46/1/4
f 44/2/4 45/2/4 47/2/4
f 46/1/4 44/1/4 47/1/4
f 47/2/4 45/2/4 48/2/4
f 49/1/4 50/1/4 51/1/4
f 51/1/4 50/1/4 52/1/4
f 55/1/5 54/1/5 53/1/5
f 56/1/5 54/1/5 55/1/5
f 59/1/5 58/1/5 57/1/5
f 60/1/5 58/1/5 59/1/5
f 61/1/5 59/1/5 57/1/5
f 62/1/5 59/1/5 61/1/5
f 63/1/6 64/1/6 65/1/6
f 65/1/6 64/1/6 66/1/6
f 67/1/6 68/1/6 69/1/6
f 69/1/6 68/1/6 70/1/6
f 67/1/6 69/1/6 71/1/6
f 71/1/6 69/1/6 72/1/6
f 73/2/6 74/2/6 75/2/6
f 75/2/6 74/2/6 76/2/6
